G75*
%MOIN*%
%OFA0B0*%
%FSLAX25Y25*%
%IPPOS*%
%LPD*%
%AMOC8*
5,1,8,0,0,1.08239X$1,22.5*
%
%ADD10C,0.00000*%
%ADD11C,0.00600*%
%ADD12C,0.01000*%
%ADD13C,0.00500*%
%ADD14C,0.00300*%
%ADD15C,0.00800*%
D10*
X0001000Y0003133D02*
X0001000Y0063133D01*
X0096000Y0063133D01*
X0096000Y0003133D01*
X0001000Y0003133D01*
D11*
X0003500Y0005633D02*
X0006000Y0003133D01*
X0011000Y0003133D01*
X0013500Y0005633D01*
X0013500Y0010633D01*
X0011000Y0013133D01*
X0013500Y0015633D01*
X0013500Y0020633D01*
X0011000Y0023133D01*
X0006000Y0023133D01*
X0003500Y0020633D01*
X0003500Y0015633D01*
X0006000Y0013133D01*
X0011000Y0013133D01*
X0006000Y0013133D02*
X0003500Y0010633D01*
X0003500Y0005633D01*
X0030500Y0013833D02*
X0056500Y0013833D01*
X0063500Y0014633D02*
X0063500Y0031633D01*
X0063502Y0031693D01*
X0063507Y0031754D01*
X0063516Y0031813D01*
X0063529Y0031872D01*
X0063545Y0031931D01*
X0063565Y0031988D01*
X0063588Y0032043D01*
X0063615Y0032098D01*
X0063644Y0032150D01*
X0063677Y0032201D01*
X0063713Y0032250D01*
X0063751Y0032296D01*
X0063793Y0032340D01*
X0063837Y0032382D01*
X0063883Y0032420D01*
X0063932Y0032456D01*
X0063983Y0032489D01*
X0064035Y0032518D01*
X0064090Y0032545D01*
X0064145Y0032568D01*
X0064202Y0032588D01*
X0064261Y0032604D01*
X0064320Y0032617D01*
X0064379Y0032626D01*
X0064440Y0032631D01*
X0064500Y0032633D01*
X0072500Y0032633D01*
X0072560Y0032631D01*
X0072621Y0032626D01*
X0072680Y0032617D01*
X0072739Y0032604D01*
X0072798Y0032588D01*
X0072855Y0032568D01*
X0072910Y0032545D01*
X0072965Y0032518D01*
X0073017Y0032489D01*
X0073068Y0032456D01*
X0073117Y0032420D01*
X0073163Y0032382D01*
X0073207Y0032340D01*
X0073249Y0032296D01*
X0073287Y0032250D01*
X0073323Y0032201D01*
X0073356Y0032150D01*
X0073385Y0032098D01*
X0073412Y0032043D01*
X0073435Y0031988D01*
X0073455Y0031931D01*
X0073471Y0031872D01*
X0073484Y0031813D01*
X0073493Y0031754D01*
X0073498Y0031693D01*
X0073500Y0031633D01*
X0073500Y0014633D01*
X0073498Y0014573D01*
X0073493Y0014512D01*
X0073484Y0014453D01*
X0073471Y0014394D01*
X0073455Y0014335D01*
X0073435Y0014278D01*
X0073412Y0014223D01*
X0073385Y0014168D01*
X0073356Y0014116D01*
X0073323Y0014065D01*
X0073287Y0014016D01*
X0073249Y0013970D01*
X0073207Y0013926D01*
X0073163Y0013884D01*
X0073117Y0013846D01*
X0073068Y0013810D01*
X0073017Y0013777D01*
X0072965Y0013748D01*
X0072910Y0013721D01*
X0072855Y0013698D01*
X0072798Y0013678D01*
X0072739Y0013662D01*
X0072680Y0013649D01*
X0072621Y0013640D01*
X0072560Y0013635D01*
X0072500Y0013633D01*
X0064500Y0013633D01*
X0064440Y0013635D01*
X0064379Y0013640D01*
X0064320Y0013649D01*
X0064261Y0013662D01*
X0064202Y0013678D01*
X0064145Y0013698D01*
X0064090Y0013721D01*
X0064035Y0013748D01*
X0063983Y0013777D01*
X0063932Y0013810D01*
X0063883Y0013846D01*
X0063837Y0013884D01*
X0063793Y0013926D01*
X0063751Y0013970D01*
X0063713Y0014016D01*
X0063677Y0014065D01*
X0063644Y0014116D01*
X0063615Y0014168D01*
X0063588Y0014223D01*
X0063565Y0014278D01*
X0063545Y0014335D01*
X0063529Y0014394D01*
X0063516Y0014453D01*
X0063507Y0014512D01*
X0063502Y0014573D01*
X0063500Y0014633D01*
X0068500Y0021633D02*
X0068500Y0022133D01*
X0068500Y0024133D02*
X0068500Y0024633D01*
X0056500Y0024333D02*
X0056500Y0021933D01*
X0056500Y0031933D02*
X0056500Y0034333D01*
X0063500Y0034633D02*
X0063500Y0051633D01*
X0063502Y0051693D01*
X0063507Y0051754D01*
X0063516Y0051813D01*
X0063529Y0051872D01*
X0063545Y0051931D01*
X0063565Y0051988D01*
X0063588Y0052043D01*
X0063615Y0052098D01*
X0063644Y0052150D01*
X0063677Y0052201D01*
X0063713Y0052250D01*
X0063751Y0052296D01*
X0063793Y0052340D01*
X0063837Y0052382D01*
X0063883Y0052420D01*
X0063932Y0052456D01*
X0063983Y0052489D01*
X0064035Y0052518D01*
X0064090Y0052545D01*
X0064145Y0052568D01*
X0064202Y0052588D01*
X0064261Y0052604D01*
X0064320Y0052617D01*
X0064379Y0052626D01*
X0064440Y0052631D01*
X0064500Y0052633D01*
X0072500Y0052633D01*
X0072560Y0052631D01*
X0072621Y0052626D01*
X0072680Y0052617D01*
X0072739Y0052604D01*
X0072798Y0052588D01*
X0072855Y0052568D01*
X0072910Y0052545D01*
X0072965Y0052518D01*
X0073017Y0052489D01*
X0073068Y0052456D01*
X0073117Y0052420D01*
X0073163Y0052382D01*
X0073207Y0052340D01*
X0073249Y0052296D01*
X0073287Y0052250D01*
X0073323Y0052201D01*
X0073356Y0052150D01*
X0073385Y0052098D01*
X0073412Y0052043D01*
X0073435Y0051988D01*
X0073455Y0051931D01*
X0073471Y0051872D01*
X0073484Y0051813D01*
X0073493Y0051754D01*
X0073498Y0051693D01*
X0073500Y0051633D01*
X0073500Y0034633D01*
X0073498Y0034573D01*
X0073493Y0034512D01*
X0073484Y0034453D01*
X0073471Y0034394D01*
X0073455Y0034335D01*
X0073435Y0034278D01*
X0073412Y0034223D01*
X0073385Y0034168D01*
X0073356Y0034116D01*
X0073323Y0034065D01*
X0073287Y0034016D01*
X0073249Y0033970D01*
X0073207Y0033926D01*
X0073163Y0033884D01*
X0073117Y0033846D01*
X0073068Y0033810D01*
X0073017Y0033777D01*
X0072965Y0033748D01*
X0072910Y0033721D01*
X0072855Y0033698D01*
X0072798Y0033678D01*
X0072739Y0033662D01*
X0072680Y0033649D01*
X0072621Y0033640D01*
X0072560Y0033635D01*
X0072500Y0033633D01*
X0064500Y0033633D01*
X0064440Y0033635D01*
X0064379Y0033640D01*
X0064320Y0033649D01*
X0064261Y0033662D01*
X0064202Y0033678D01*
X0064145Y0033698D01*
X0064090Y0033721D01*
X0064035Y0033748D01*
X0063983Y0033777D01*
X0063932Y0033810D01*
X0063883Y0033846D01*
X0063837Y0033884D01*
X0063793Y0033926D01*
X0063751Y0033970D01*
X0063713Y0034016D01*
X0063677Y0034065D01*
X0063644Y0034116D01*
X0063615Y0034168D01*
X0063588Y0034223D01*
X0063565Y0034278D01*
X0063545Y0034335D01*
X0063529Y0034394D01*
X0063516Y0034453D01*
X0063507Y0034512D01*
X0063502Y0034573D01*
X0063500Y0034633D01*
X0068500Y0041633D02*
X0068500Y0042133D01*
X0068500Y0044133D02*
X0068500Y0044633D01*
X0056500Y0044333D02*
X0056500Y0041933D01*
X0056500Y0052433D02*
X0031600Y0052433D01*
X0021000Y0052133D02*
X0021000Y0051633D01*
X0021000Y0054133D02*
X0021000Y0054633D01*
X0013500Y0055633D02*
X0013500Y0060633D01*
X0011000Y0063133D01*
X0006000Y0063133D01*
X0003500Y0060633D01*
X0003500Y0055633D01*
X0006000Y0053133D01*
X0011000Y0053133D01*
X0013500Y0055633D01*
X0011000Y0053133D02*
X0013500Y0050633D01*
X0013500Y0045633D01*
X0011000Y0043133D01*
X0013500Y0040633D01*
X0013500Y0035633D01*
X0011000Y0033133D01*
X0013500Y0030633D01*
X0013500Y0025633D01*
X0011000Y0023133D01*
X0006000Y0023133D02*
X0003500Y0025633D01*
X0003500Y0030633D01*
X0006000Y0033133D01*
X0003500Y0035633D01*
X0003500Y0040633D01*
X0006000Y0043133D01*
X0003500Y0045633D01*
X0003500Y0050633D01*
X0006000Y0053133D01*
X0016000Y0044633D02*
X0016000Y0061633D01*
X0016002Y0061693D01*
X0016007Y0061754D01*
X0016016Y0061813D01*
X0016029Y0061872D01*
X0016045Y0061931D01*
X0016065Y0061988D01*
X0016088Y0062043D01*
X0016115Y0062098D01*
X0016144Y0062150D01*
X0016177Y0062201D01*
X0016213Y0062250D01*
X0016251Y0062296D01*
X0016293Y0062340D01*
X0016337Y0062382D01*
X0016383Y0062420D01*
X0016432Y0062456D01*
X0016483Y0062489D01*
X0016535Y0062518D01*
X0016590Y0062545D01*
X0016645Y0062568D01*
X0016702Y0062588D01*
X0016761Y0062604D01*
X0016820Y0062617D01*
X0016879Y0062626D01*
X0016940Y0062631D01*
X0017000Y0062633D01*
X0025000Y0062633D01*
X0025060Y0062631D01*
X0025121Y0062626D01*
X0025180Y0062617D01*
X0025239Y0062604D01*
X0025298Y0062588D01*
X0025355Y0062568D01*
X0025410Y0062545D01*
X0025465Y0062518D01*
X0025517Y0062489D01*
X0025568Y0062456D01*
X0025617Y0062420D01*
X0025663Y0062382D01*
X0025707Y0062340D01*
X0025749Y0062296D01*
X0025787Y0062250D01*
X0025823Y0062201D01*
X0025856Y0062150D01*
X0025885Y0062098D01*
X0025912Y0062043D01*
X0025935Y0061988D01*
X0025955Y0061931D01*
X0025971Y0061872D01*
X0025984Y0061813D01*
X0025993Y0061754D01*
X0025998Y0061693D01*
X0026000Y0061633D01*
X0026000Y0044633D01*
X0025998Y0044573D01*
X0025993Y0044512D01*
X0025984Y0044453D01*
X0025971Y0044394D01*
X0025955Y0044335D01*
X0025935Y0044278D01*
X0025912Y0044223D01*
X0025885Y0044168D01*
X0025856Y0044116D01*
X0025823Y0044065D01*
X0025787Y0044016D01*
X0025749Y0043970D01*
X0025707Y0043926D01*
X0025663Y0043884D01*
X0025617Y0043846D01*
X0025568Y0043810D01*
X0025517Y0043777D01*
X0025465Y0043748D01*
X0025410Y0043721D01*
X0025355Y0043698D01*
X0025298Y0043678D01*
X0025239Y0043662D01*
X0025180Y0043649D01*
X0025121Y0043640D01*
X0025060Y0043635D01*
X0025000Y0043633D01*
X0017000Y0043633D01*
X0016940Y0043635D01*
X0016879Y0043640D01*
X0016820Y0043649D01*
X0016761Y0043662D01*
X0016702Y0043678D01*
X0016645Y0043698D01*
X0016590Y0043721D01*
X0016535Y0043748D01*
X0016483Y0043777D01*
X0016432Y0043810D01*
X0016383Y0043846D01*
X0016337Y0043884D01*
X0016293Y0043926D01*
X0016251Y0043970D01*
X0016213Y0044016D01*
X0016177Y0044065D01*
X0016144Y0044116D01*
X0016115Y0044168D01*
X0016088Y0044223D01*
X0016065Y0044278D01*
X0016045Y0044335D01*
X0016029Y0044394D01*
X0016016Y0044453D01*
X0016007Y0044512D01*
X0016002Y0044573D01*
X0016000Y0044633D01*
X0011000Y0043133D02*
X0006000Y0043133D01*
X0006000Y0033133D02*
X0011000Y0033133D01*
X0030500Y0034333D02*
X0030500Y0031933D01*
X0030500Y0024333D02*
X0030500Y0021933D01*
X0030500Y0041933D02*
X0030500Y0043833D01*
X0083500Y0045633D02*
X0083500Y0050633D01*
X0086000Y0053133D01*
X0091000Y0053133D01*
X0093500Y0050633D01*
X0093500Y0045633D01*
X0091000Y0043133D01*
X0093500Y0040633D01*
X0093500Y0035633D01*
X0091000Y0033133D01*
X0093500Y0030633D01*
X0093500Y0025633D01*
X0091000Y0023133D01*
X0086000Y0023133D01*
X0083500Y0025633D01*
X0083500Y0030633D01*
X0086000Y0033133D01*
X0083500Y0035633D01*
X0083500Y0040633D01*
X0086000Y0043133D01*
X0083500Y0045633D01*
X0086000Y0043133D02*
X0091000Y0043133D01*
X0091000Y0033133D02*
X0086000Y0033133D01*
D12*
X0071500Y0024133D02*
X0068500Y0024133D01*
X0065500Y0024133D01*
X0065500Y0022133D02*
X0068500Y0022133D01*
X0071500Y0022133D01*
X0071500Y0042133D02*
X0068500Y0042133D01*
X0065500Y0042133D01*
X0065500Y0044133D02*
X0068500Y0044133D01*
X0071500Y0044133D01*
X0024000Y0052133D02*
X0021000Y0052133D01*
X0018000Y0052133D01*
X0018000Y0054133D02*
X0021000Y0054133D01*
X0024000Y0054133D01*
D13*
X0022147Y0041887D02*
X0022147Y0037383D01*
X0020646Y0037383D02*
X0023649Y0037383D01*
X0021050Y0035294D02*
X0021050Y0032291D01*
X0018047Y0035294D01*
X0017297Y0035294D01*
X0016546Y0034543D01*
X0016546Y0033042D01*
X0017297Y0032291D01*
X0017297Y0030690D02*
X0018798Y0030690D01*
X0019549Y0029939D01*
X0019549Y0027687D01*
X0021050Y0027687D02*
X0016546Y0027687D01*
X0016546Y0029939D01*
X0017297Y0030690D01*
X0016546Y0026086D02*
X0016546Y0024585D01*
X0016546Y0025335D02*
X0020299Y0025335D01*
X0021050Y0024585D01*
X0021050Y0023834D01*
X0020299Y0023083D01*
X0018294Y0037383D02*
X0016793Y0037383D01*
X0016042Y0038134D01*
X0016042Y0041137D01*
X0016793Y0041887D01*
X0018294Y0041887D01*
X0019045Y0041137D01*
X0020646Y0040386D02*
X0022147Y0041887D01*
X0019045Y0038134D02*
X0018294Y0037383D01*
X0057246Y0038926D02*
X0057997Y0038175D01*
X0060999Y0038175D01*
X0061750Y0038926D01*
X0061750Y0040427D01*
X0060999Y0041178D01*
X0057997Y0041178D02*
X0057246Y0040427D01*
X0057246Y0038926D01*
X0057997Y0042779D02*
X0057246Y0043530D01*
X0057246Y0045031D01*
X0057997Y0045782D01*
X0058747Y0045782D01*
X0061750Y0042779D01*
X0061750Y0045782D01*
X0061499Y0026990D02*
X0060749Y0026990D01*
X0059998Y0026239D01*
X0059998Y0025489D01*
X0059998Y0026239D02*
X0059247Y0026990D01*
X0058497Y0026990D01*
X0057746Y0026239D01*
X0057746Y0024738D01*
X0058497Y0023987D01*
X0058497Y0022386D02*
X0057746Y0021635D01*
X0057746Y0020134D01*
X0058497Y0019383D01*
X0061499Y0019383D01*
X0062250Y0020134D01*
X0062250Y0021635D01*
X0061499Y0022386D01*
X0061499Y0023987D02*
X0062250Y0024738D01*
X0062250Y0026239D01*
X0061499Y0026990D01*
X0085946Y0018081D02*
X0090450Y0018081D01*
X0090450Y0019582D02*
X0090450Y0016579D01*
X0088198Y0014978D02*
X0088949Y0014227D01*
X0088949Y0011975D01*
X0090450Y0011975D02*
X0085946Y0011975D01*
X0085946Y0014227D01*
X0086697Y0014978D01*
X0088198Y0014978D01*
X0087447Y0016579D02*
X0085946Y0018081D01*
X0085946Y0010374D02*
X0085946Y0008873D01*
X0085946Y0009623D02*
X0089699Y0009623D01*
X0090450Y0008873D01*
X0090450Y0008122D01*
X0089699Y0007372D01*
D14*
X0029486Y0052467D02*
X0026350Y0055603D01*
X0027918Y0055603D02*
X0027918Y0052467D01*
X0026350Y0052467D02*
X0029486Y0055603D01*
X0029486Y0054035D02*
X0026350Y0054035D01*
D15*
X0044719Y0039374D02*
X0044719Y0029499D01*
X0043485Y0030733D02*
X0045954Y0030733D01*
X0047188Y0031968D01*
X0047188Y0033202D01*
X0045954Y0034436D01*
X0043485Y0034436D01*
X0042250Y0035671D01*
X0042250Y0036905D01*
X0043485Y0038140D01*
X0045954Y0038140D01*
X0047188Y0036905D01*
X0049801Y0035671D02*
X0052270Y0038140D01*
X0052270Y0030733D01*
X0054738Y0030733D02*
X0049801Y0030733D01*
X0043485Y0030733D02*
X0042250Y0031968D01*
X0039638Y0031968D02*
X0039638Y0038140D01*
X0034700Y0038140D02*
X0034700Y0031968D01*
X0035934Y0030733D01*
X0038403Y0030733D01*
X0039638Y0031968D01*
M02*
