%
M48
M72
T01C0.03200
T02C0.03900
T03C0.04000
%
T01
X68500Y18133
X68500Y28133
X68500Y38133
X68500Y48133
X21000Y48133
X21000Y58133
T02
X28500Y48133
X28500Y38133
X28500Y28133
X28500Y18133
X58500Y18133
X58500Y28133
X58500Y38133
X58500Y48133
T03
X8500Y8133
X8500Y18133
X8500Y28133
X8500Y38133
X8500Y48133
X8500Y58133
X88500Y48133
X88500Y38133
X88500Y28133
M30
